<svg xmlns="http://www.w3.org/2000/svg" 
     width="60" height="56.7" viewBox="0 0 247.21 233.8">
  <defs>
    <linearGradient id="grad1" x1="533.27" y1="327.12" x2="533.27" y2="105.68" gradientUnits="userSpaceOnUse">
      <stop offset="0" stop-color="#0a0619"/>
      <stop offset="1" stop-color="#ff0844"/>
    </linearGradient>
  </defs>
  <path d="M582.5 271.6c-14.7 14.7-34.3 22.8-55.2 22.8-43 0-78-35-78-78s35-78 78-78c20.8 0 40.4 8.1 55.2 22.8 
           3.2 3.2 7.4 4.8 11.6 4.8 4.2 0 8.4-1.6 11.6-4.8 
           6.4-6.4 6.4-16.7 0-23.1-20.9-20.9-48.7-32.4-78.3-32.4
           -61.1 0-110.7 49.7-110.7 110.7 0 61.1 49.7 110.7 110.7 110.7 
           29.6 0 57.4-11.5 78.3-32.4 6.4-6.4 6.4-16.7 0-23.1-6.5-6.4-16.8-6.4-23.2 0zm51.1-44.4h-60.3
           c-9 0-16.4 7.3-16.4 16.4 0 9 7.3 16.4 16.4 16.4h44v44c0 9 7.3 16.4 16.4 16.4
           9 0 16.4-7.3 16.4-16.4v-60.3c-.1-9.2-7.5-16.5-16.5-16.5z"
        fill="url(#grad1)" transform="translate(-408.76 -99.25)"/>
</svg>
