      <svg data-v-0dd9719b="" version="1.0" xmlns="http://www.w3.org/2000/svg" xmlns:xlink="http://www.w3.org/1999/xlink" width="100%" height="100%" viewBox="0 0 340.000000 250.000000" preserveAspectRatio="xMidYMid meet" color-interpolation-filters="sRGB" style="margin: auto;"> 
      <rect data-v-0dd9719b="" x="0" y="0" width="100%" height="100%" fill="#ffffff" fill-opacity="1" class="background"></rect> 
      <g data-v-0dd9719b="" fill="#69061F" class="icon-text-wrapper icon-svg-group iconsvg" transform="translate(82.15499877929688,74.25444793701172)">
        <g class="iconsvg-imagesvg" transform="translate(57.845001220703125,0)">
            <g>
            <rect fill="#69061F" fill-opacity="0" stroke-width="2" x="0" y="0" width="60" height="56.74510100627979" class="image-rect"></rect> <svg x="0" y="0" width="60" height="56.74510100627979" filtersec="colorsb4539247629" class="image-svg-svg primary" style="overflow: visible;">
            <svg viewBox="0 0 247.21200561523438 233.802001953125" xmlns="http://www.w3.org/2000/svg">
                <path fill="none" pointer-events="none" d="M0 0h247.212v233.802H0z"></path>
                <g transform="translate(-408.76 -99.257)">
                    <linearGradient id="67649409-876b-4c42-bdc0-14316d2aa531" gradientUnits="userSpaceOnUse" x1="533.277" y1="327.129" x2="533.277" y2="105.68">
                        <stop offset="0" stop-color="#0a0619"></stop><stop offset="1" stop-color="#ff0844"></stop>
                    </linearGradient>
                    <path class="st41" d="M582.5 271.6c-14.7 14.7-34.3 22.8-55.2 22.8-43 0-78-35-78-78s35-78 78-78c20.8 0 40.4 8.1 55.2 22.8 3.2 3.2 7.4 4.8 11.6 4.8 4.2 0 8.4-1.6 11.6-4.8 6.4-6.4 6.4-16.7 0-23.1-20.9-20.9-48.7-32.4-78.3-32.4-61.1 0-110.7 49.7-110.7 110.7 0 61.1 49.7 110.7 110.7 110.7 29.6 0 57.4-11.5 78.3-32.4 6.4-6.4 6.4-16.7 0-23.1-6.5-6.4-16.8-6.4-23.2 0zm51.1-44.4h-60.3c-9 0-16.4 7.3-16.4 16.4 0 9 7.3 16.4 16.4 16.4h44v44c0 9 7.3 16.4 16.4 16.4 9 0 16.4-7.3 16.4-16.4v-60.3c-.1-9.2-7.5-16.5-16.5-16.5z" fill="url(#67649409-876b-4c42-bdc0-14316d2aa531)"></path>
                </g>
            </svg>
        </svg> 
    </g>
</g> 
<g transform="translate(0,63.74510192871094)">
    <g data-gra="path-name" fill-rule="" class="tp-name iconsvg-namesvg" transform="translate(0,0)">
        <g transform="scale(1)">
            <g>
                <path d="M6.17 0.26L6.17 0.26Q4.3 0.26 3.2-0.54 2.1-1.33 1.62-2.79 1.15-4.26 1.15-6.24L1.15-6.24 1.15-12.6Q1.15-14.64 1.61-16.11 2.08-17.58 3.26-18.36 4.44-19.15 6.52-19.15L6.52-19.15Q8.46-19.15 9.61-18.49 10.75-17.84 11.26-16.61 11.76-15.38 11.76-13.63L11.76-13.63 11.76-12.65 8.46-12.65 8.46-13.72Q8.46-14.64 8.33-15.29 8.21-15.94 7.82-16.28 7.43-16.62 6.57-16.62L6.57-16.62Q5.66-16.62 5.25-16.18 4.84-15.73 4.73-15.01 4.63-14.28 4.63-13.42L4.63-13.42 4.63-5.49Q4.63-4.51 4.79-3.79 4.96-3.06 5.4-2.68 5.84-2.29 6.66-2.29L6.66-2.29Q7.5-2.29 7.95-2.71 8.39-3.13 8.57-3.88 8.74-4.63 8.74-5.66L8.74-5.66 8.74-7.43 6.71-7.43 6.71-9.61 11.85-9.61 11.85 0 9.63 0 9.38-1.87Q9-0.94 8.24-0.34 7.48 0.26 6.17 0.26ZM16.9 0.21L16.9 0.21Q15.99 0.21 15.34-0.27 14.68-0.75 14.33-1.48 13.98-2.22 13.98-3.02L13.98-3.02Q13.98-4.28 14.45-5.14 14.92-6.01 15.69-6.59 16.46-7.18 17.44-7.61 18.42-8.04 19.43-8.39L19.43-8.39 19.43-9.56Q19.43-10.15 19.35-10.54 19.26-10.94 19.04-11.15 18.82-11.36 18.35-11.36L18.35-11.36Q17.96-11.36 17.71-11.18 17.46-10.99 17.36-10.65 17.25-10.31 17.23-9.87L17.23-9.87 17.18-9.05 14.17-9.16Q14.24-11.5 15.33-12.61 16.41-13.72 18.63-13.72L18.63-13.72Q20.67-13.72 21.59-12.6 22.51-11.48 22.51-9.56L22.51-9.56 22.51-3.32Q22.51-2.57 22.55-1.96 22.58-1.36 22.64-0.87 22.7-0.37 22.75 0L22.75 0 19.9 0Q19.83-0.47 19.72-1.06 19.62-1.66 19.57-1.94L19.57-1.94Q19.33-1.12 18.68-0.46 18.03 0.21 16.9 0.21ZM18.07-2.15L18.07-2.15Q18.38-2.15 18.65-2.3 18.91-2.45 19.12-2.67 19.33-2.88 19.43-3.04L19.43-3.04 19.43-6.8Q18.91-6.5 18.46-6.2 18-5.89 17.66-5.53 17.32-5.17 17.15-4.75 16.97-4.33 16.97-3.76L16.97-3.76Q16.97-3.02 17.27-2.58 17.56-2.15 18.07-2.15ZM27.47 0.21L27.47 0.21Q26.56 0.21 25.9-0.27 25.25-0.75 24.9-1.48 24.55-2.22 24.55-3.02L24.55-3.02Q24.55-4.28 25.02-5.14 25.48-6.01 26.26-6.59 27.03-7.18 28.01-7.61 28.99-8.04 30-8.39L30-8.39 30-9.56Q30-10.15 29.91-10.54 29.83-10.94 29.61-11.15 29.39-11.36 28.92-11.36L28.92-11.36Q28.52-11.36 28.28-11.18 28.03-10.99 27.93-10.65 27.82-10.31 27.8-9.87L27.8-9.87 27.75-9.05 24.74-9.16Q24.81-11.5 25.89-12.61 26.98-13.72 29.2-13.72L29.2-13.72Q31.24-13.72 32.16-12.6 33.08-11.48 33.08-9.56L33.08-9.56 33.08-3.32Q33.08-2.57 33.12-1.96 33.15-1.36 33.21-0.87 33.27-0.37 33.32 0L33.32 0 30.46 0Q30.39-0.47 30.29-1.06 30.18-1.66 30.14-1.94L30.14-1.94Q29.9-1.12 29.25-0.46 28.59 0.21 27.47 0.21ZM28.64-2.15L28.64-2.15Q28.94-2.15 29.21-2.3 29.48-2.45 29.69-2.67 29.9-2.88 30-3.04L30-3.04 30-6.8Q29.48-6.5 29.03-6.2 28.57-5.89 28.23-5.53 27.89-5.17 27.72-4.75 27.54-4.33 27.54-3.76L27.54-3.76Q27.54-3.02 27.83-2.58 28.13-2.15 28.64-2.15ZM38.6 0L35.42 0 35.42-13.51 38.6-13.51 38.6-12.16Q39.32-12.86 40.13-13.29 40.94-13.72 41.87-13.72L41.87-13.72Q42.71-13.72 43.21-13.31 43.7-12.91 43.93-12.23 44.16-11.55 44.16-10.75L44.16-10.75 44.16 0 40.98 0 40.98-10.12Q40.98-10.73 40.8-11.06 40.61-11.39 40.07-11.39L40.07-11.39Q39.75-11.39 39.36-11.2 38.97-11.01 38.6-10.73L38.6-10.73 38.6 0ZM57 0L52.39 0 52.39-18.94 56.86-18.94Q59.17-18.94 60.47-18.31 61.77-17.68 62.32-16.37 62.87-15.06 62.87-13.05L62.87-13.05 62.87-6.13Q62.87-4.07 62.32-2.7 61.77-1.33 60.49-0.67 59.22 0 57 0L57 0ZM55.85-16.48L55.85-2.41 56.91-2.41Q58.1-2.41 58.61-2.83 59.13-3.25 59.24-4.06 59.36-4.86 59.36-6.03L59.36-6.03 59.36-13.28Q59.36-14.43 59.2-15.13 59.03-15.83 58.52-16.16 58-16.48 56.86-16.48L56.86-16.48 55.85-16.48ZM69.3 0.21L69.3 0.21Q67.78 0.21 66.82-0.36 65.86-0.94 65.4-2.05 64.95-3.16 64.95-4.72L64.95-4.72 64.95-8.79Q64.95-10.4 65.4-11.5 65.86-12.6 66.83-13.16 67.8-13.72 69.3-13.72L69.3-13.72Q70.91-13.72 71.81-13.12 72.71-12.51 73.1-11.35 73.48-10.19 73.48-8.53L73.48-8.53 73.48-6.62 68.1-6.62 68.1-3.95Q68.1-3.3 68.23-2.88 68.36-2.45 68.64-2.27 68.92-2.08 69.32-2.08L69.32-2.08Q69.74-2.08 70-2.28 70.26-2.48 70.37-2.86 70.49-3.25 70.49-3.83L70.49-3.83 70.49-4.96 73.46-4.96 73.46-4.04Q73.46-1.99 72.43-0.89 71.4 0.21 69.3 0.21ZM68.1-9.12L68.1-8.18 70.49-8.18 70.49-9.47Q70.49-10.17 70.37-10.6 70.26-11.04 70-11.23 69.74-11.43 69.27-11.43L69.27-11.43Q68.85-11.43 68.6-11.22 68.34-11.01 68.22-10.52 68.1-10.03 68.1-9.12L68.1-9.12ZM80.92 0L77.39 0 74.7-13.51 77.81-13.51 79.19-3.81 80.54-13.51 83.61-13.51 80.92 0ZM89.17 0.21L89.17 0.21Q87.65 0.21 86.69-0.36 85.73-0.94 85.28-2.05 84.82-3.16 84.82-4.72L84.82-4.72 84.82-8.79Q84.82-10.4 85.28-11.5 85.73-12.6 86.7-13.16 87.67-13.72 89.17-13.72L89.17-13.72Q90.78-13.72 91.68-13.12 92.58-12.51 92.97-11.35 93.35-10.19 93.35-8.53L93.35-8.53 93.35-6.62 87.98-6.62 87.98-3.95Q87.98-3.3 88.11-2.88 88.23-2.45 88.52-2.27 88.8-2.08 89.19-2.08L89.19-2.08Q89.61-2.08 89.87-2.28 90.13-2.48 90.25-2.86 90.36-3.25 90.36-3.83L90.36-3.83 90.36-4.96 93.33-4.96 93.33-4.04Q93.33-1.99 92.3-0.89 91.27 0.21 89.17 0.21ZM87.98-9.12L87.98-8.18 90.36-8.18 90.36-9.47Q90.36-10.17 90.25-10.6 90.13-11.04 89.87-11.23 89.61-11.43 89.15-11.43L89.15-11.43Q88.73-11.43 88.47-11.22 88.21-11.01 88.09-10.52 87.98-10.03 87.98-9.12L87.98-9.12ZM98.87 0L95.72 0 95.72-18.94 98.87-18.94 98.87 0ZM105.49 0.21L105.49 0.21Q104.02 0.21 103.06-0.34 102.1-0.89 101.62-1.94 101.14-2.99 101.14-4.49L101.14-4.49 101.14-9.02Q101.14-10.52 101.62-11.57 102.1-12.63 103.06-13.17 104.02-13.72 105.49-13.72L105.49-13.72Q106.96-13.72 107.93-13.17 108.9-12.63 109.38-11.57 109.86-10.52 109.86-9.02L109.86-9.02 109.86-4.49Q109.86-2.99 109.38-1.94 108.9-0.89 107.93-0.34 106.96 0.21 105.49 0.21ZM105.51-1.99L105.51-1.99Q106.05-1.99 106.31-2.29 106.56-2.6 106.63-3.12 106.7-3.65 106.7-4.28L106.7-4.28 106.7-9.23Q106.7-9.87 106.63-10.38 106.56-10.89 106.31-11.21 106.05-11.53 105.51-11.53L105.51-11.53Q104.97-11.53 104.72-11.21 104.46-10.89 104.38-10.38 104.3-9.87 104.3-9.23L104.3-9.23 104.3-4.28Q104.3-3.65 104.38-3.12 104.46-2.6 104.72-2.29 104.97-1.99 105.51-1.99ZM115.21 4.44L112.04 4.44 112.04-13.51 115.21-13.51 115.21-12.48Q115.8-13.05 116.5-13.38 117.2-13.72 117.97-13.72L117.97-13.72Q118.89-13.72 119.47-13.3 120.05-12.88 120.38-12.19 120.71-11.5 120.84-10.72 120.97-9.94 120.97-9.21L120.97-9.21 120.97-4.63Q120.97-3.3 120.65-2.2 120.34-1.1 119.65-0.44 118.96 0.21 117.81 0.21L117.81 0.21Q117.09 0.21 116.44-0.14 115.8-0.49 115.21-1.03L115.21-1.03 115.21 4.44ZM116.62-2.01L116.62-2.01Q117.13-2.01 117.38-2.35 117.62-2.69 117.7-3.26 117.79-3.83 117.79-4.51L117.79-4.51 117.79-9.35Q117.79-9.98 117.69-10.49 117.6-10.99 117.34-11.29 117.09-11.6 116.59-11.6L116.59-11.6Q116.22-11.6 115.86-11.42 115.5-11.25 115.21-11.01L115.21-11.01 115.21-2.48Q115.52-2.27 115.87-2.14 116.22-2.01 116.62-2.01ZM126.23 0L123.16 0 123.16-13.51 126.23-13.51 126.23-12.34Q126.93-13.09 127.75-13.43 128.56-13.77 129.41-13.77L129.41-13.77Q130.2-13.77 130.8-13.37 131.39-12.98 131.67-12.11L131.67-12.11Q132.45-13 133.31-13.38 134.18-13.77 135.09-13.77L135.09-13.77Q135.81-13.77 136.37-13.41 136.93-13.05 137.26-12.33 137.59-11.62 137.59-10.54L137.59-10.54 137.59 0 134.55 0 134.55-10.26Q134.55-11.04 134.29-11.33 134.04-11.62 133.57-11.62L133.57-11.62Q133.19-11.62 132.74-11.41 132.28-11.2 131.91-10.82L131.91-10.82Q131.91-10.75 131.91-10.7 131.91-10.64 131.91-10.54L131.91-10.54 131.91 0 128.89 0 128.89-10.26Q128.89-11.04 128.62-11.33 128.35-11.62 127.89-11.62L127.89-11.62Q127.51-11.62 127.07-11.41 126.62-11.2 126.23-10.82L126.23-10.82 126.23 0ZM144.04 0.21L144.04 0.21Q142.52 0.21 141.56-0.36 140.61-0.94 140.15-2.05 139.69-3.16 139.69-4.72L139.69-4.72 139.69-8.79Q139.69-10.4 140.15-11.5 140.61-12.6 141.58-13.16 142.55-13.72 144.04-13.72L144.04-13.72Q145.66-13.72 146.56-13.12 147.46-12.51 147.84-11.35 148.23-10.19 148.23-8.53L148.23-8.53 148.23-6.62 142.85-6.62 142.85-3.95Q142.85-3.3 142.98-2.88 143.11-2.45 143.39-2.27 143.67-2.08 144.07-2.08L144.07-2.08Q144.49-2.08 144.74-2.28 145-2.48 145.12-2.86 145.23-3.25 145.23-3.83L145.23-3.83 145.23-4.96 148.2-4.96 148.2-4.04Q148.2-1.99 147.17-0.89 146.15 0.21 144.04 0.21ZM142.85-9.12L142.85-8.18 145.23-8.18 145.23-9.47Q145.23-10.17 145.12-10.6 145-11.04 144.74-11.23 144.49-11.43 144.02-11.43L144.02-11.43Q143.6-11.43 143.34-11.22 143.08-11.01 142.97-10.52 142.85-10.03 142.85-9.12L142.85-9.12ZM153.56 0L150.38 0 150.38-13.51 153.56-13.51 153.56-12.16Q154.28-12.86 155.09-13.29 155.9-13.72 156.83-13.72L156.83-13.72Q157.67-13.72 158.16-13.31 158.65-12.91 158.89-12.23 159.12-11.55 159.12-10.75L159.12-10.75 159.12 0 155.94 0 155.94-10.12Q155.94-10.73 155.76-11.06 155.57-11.39 155.03-11.39L155.03-11.39Q154.7-11.39 154.32-11.2 153.93-11.01 153.56-10.73L153.56-10.73 153.56 0ZM165.36 0.16L165.36 0.16Q164.08 0.16 163.34-0.26 162.61-0.68 162.3-1.47 162-2.27 162-3.37L162-3.37 162-11.41 160.64-11.41 160.64-13.51 162-13.51 162-17.56 165.2-17.56 165.2-13.51 167.26-13.51 167.26-11.41 165.2-11.41 165.2-3.65Q165.2-2.95 165.5-2.65 165.81-2.36 166.42-2.36L166.42-2.36Q166.67-2.36 166.92-2.38 167.16-2.41 167.4-2.43L167.4-2.43 167.4 0Q167 0.05 166.47 0.11 165.95 0.16 165.36 0.16ZM172.89 0.21L172.89 0.21Q171.19 0.21 170.09-0.7 168.99-1.61 168.52-3.37L168.52-3.37 170.88-4.28Q171.16-3.18 171.63-2.6 172.1-2.01 172.85-2.01L172.85-2.01Q173.41-2.01 173.69-2.29 173.97-2.57 173.97-3.06L173.97-3.06Q173.97-3.62 173.63-4.08 173.29-4.54 172.47-5.21L172.47-5.21 170.84-6.59Q169.95-7.36 169.4-8.17 168.85-8.98 168.85-10.19L168.85-10.19Q168.85-11.29 169.35-12.08 169.85-12.86 170.73-13.29 171.61-13.72 172.68-13.72L172.68-13.72Q174.32-13.72 175.31-12.75 176.31-11.78 176.59-10.22L176.59-10.22 174.51-9.33Q174.39-9.89 174.17-10.37 173.94-10.85 173.59-11.15 173.24-11.46 172.78-11.46L172.78-11.46Q172.28-11.46 171.99-11.15 171.7-10.85 171.7-10.38L171.7-10.38Q171.7-9.98 172.04-9.56 172.38-9.14 173.01-8.6L173.01-8.6 174.67-7.11Q175.21-6.64 175.7-6.1 176.19-5.56 176.52-4.9 176.84-4.23 176.84-3.37L176.84-3.37Q176.84-2.2 176.32-1.4 175.79-0.61 174.89-0.2 173.99 0.21 172.89 0.21Z" transform="translate(-1.149999976158142, 19.149999618530273)"></path>
            </g>
        </g>
    </g>
    <g data-gra="path-slogan" fill-rule="" class="tp-slogan iconsvg-slogansvg" fill="#69061F" transform="translate(5,29.590002059936523)">
        <rect x="0" height="1" y="3.580000877380371" width="12.555000305175781"></rect> 
        <rect height="1" y="3.580000877380371" width="12.555000305175781" x="153.13500213623047"></rect> 
        <g transform="translate(15.555000305175781,0)">
            <g transform="scale(1)">
                <path d="M2.35-3.05L2.35 0L3.36 0L3.36-3.05L5.72-7.87L4.68-7.87L3.67-5.65C3.55-5.36 3.42-5.08 3.29-4.80C3.15-4.52 3.02-4.23 2.88-3.94L2.83-3.94C2.70-4.23 2.57-4.52 2.45-4.80C2.33-5.08 2.20-5.36 2.08-5.65L1.06-7.87L-0.01-7.87ZM9.53 0.14C10.02 0.14 10.48 0.05 10.89-0.14C11.30-0.34 11.66-0.61 11.96-0.97C12.26-1.32 12.49-1.75 12.65-2.26C12.82-2.77 12.90-3.34 12.90-3.97C12.90-4.60 12.82-5.16 12.65-5.66C12.49-6.16 12.26-6.58 11.96-6.93C11.66-7.28 11.30-7.55 10.89-7.73C10.48-7.92 10.02-8.02 9.53-8.02C9.03-8.02 8.58-7.92 8.17-7.74C7.75-7.56 7.40-7.29 7.10-6.94C6.81-6.59 6.58-6.17 6.41-5.67C6.25-5.17 6.17-4.60 6.17-3.97C6.17-3.34 6.25-2.77 6.41-2.26C6.58-1.75 6.81-1.32 7.10-0.97C7.40-0.61 7.75-0.34 8.17-0.14C8.58 0.05 9.03 0.14 9.53 0.14ZM9.53-0.73C9.18-0.73 8.86-0.81 8.57-0.96C8.29-1.11 8.05-1.33 7.84-1.61C7.64-1.90 7.48-2.24 7.37-2.63C7.26-3.03 7.20-3.48 7.20-3.97C7.20-4.46 7.26-4.90 7.37-5.29C7.48-5.68 7.64-6.02 7.84-6.29C8.05-6.56 8.29-6.77 8.57-6.92C8.86-7.07 9.18-7.14 9.53-7.14C9.88-7.14 10.20-7.07 10.48-6.92C10.77-6.77 11.01-6.56 11.21-6.29C11.42-6.02 11.58-5.68 11.69-5.29C11.80-4.90 11.86-4.46 11.86-3.97C11.86-3.48 11.80-3.03 11.69-2.63C11.58-2.24 11.42-1.90 11.21-1.61C11.01-1.33 10.77-1.11 10.48-0.96C10.20-0.81 9.88-0.73 9.53-0.73ZM14.56-7.87L14.56-3.25C14.56-2.62 14.63-2.09 14.77-1.66C14.92-1.22 15.11-0.87 15.37-0.61C15.62-0.34 15.92-0.15 16.27-0.03C16.61 0.09 16.99 0.14 17.39 0.14C17.79 0.14 18.16 0.09 18.50-0.03C18.85-0.15 19.15-0.34 19.40-0.61C19.65-0.87 19.85-1.22 19.99-1.66C20.14-2.09 20.21-2.62 20.21-3.25L20.21-7.87L19.25-7.87L19.25-3.23C19.25-2.76 19.20-2.36 19.10-2.04C19.01-1.72 18.88-1.46 18.71-1.27C18.54-1.08 18.34-0.94 18.12-0.86C17.90-0.77 17.65-0.73 17.39-0.73C17.13-0.73 16.89-0.77 16.67-0.86C16.44-0.94 16.25-1.08 16.09-1.27C15.92-1.46 15.79-1.72 15.70-2.04C15.60-2.36 15.55-2.76 15.55-3.23L15.55-7.87ZM23.33-4.14L23.33-7.07L24.65-7.07C25.26-7.07 25.74-6.96 26.06-6.76C26.39-6.55 26.56-6.18 26.56-5.66C26.56-5.15 26.39-4.77 26.06-4.52C25.74-4.27 25.26-4.14 24.65-4.14ZM26.65 0L27.78 0L25.79-3.43C26.32-3.57 26.75-3.82 27.07-4.19C27.39-4.56 27.55-5.05 27.55-5.66C27.55-6.07 27.48-6.42 27.35-6.70C27.21-6.98 27.02-7.20 26.78-7.38C26.53-7.56 26.24-7.68 25.90-7.76C25.56-7.83 25.19-7.87 24.79-7.87L22.33-7.87L22.33 0L23.33 0L23.33-3.32L24.76-3.32ZM31.73-7.87L31.73 0L34.24 0C34.68 0 35.08-0.05 35.45-0.14C35.82-0.24 36.13-0.38 36.40-0.58C36.66-0.77 36.86-1.01 37.01-1.30C37.15-1.58 37.22-1.92 37.22-2.30C37.22-2.85 37.06-3.28 36.74-3.59C36.42-3.90 35.98-4.10 35.40-4.19L35.40-4.24C35.86-4.36 36.21-4.57 36.43-4.89C36.66-5.21 36.77-5.56 36.77-5.95C36.77-6.30 36.70-6.59 36.57-6.83C36.44-7.08 36.25-7.28 36.02-7.43C35.78-7.58 35.50-7.69 35.17-7.76C34.83-7.84 34.47-7.87 34.07-7.87ZM33.89-4.51L32.72-4.51L32.72-7.08L33.94-7.08C34.55-7.08 35.01-6.99 35.32-6.80C35.63-6.61 35.78-6.30 35.78-5.87C35.78-5.43 35.64-5.09 35.35-4.86C35.05-4.63 34.57-4.51 33.89-4.51ZM34.09-0.79L32.72-0.79L32.72-3.77L34.09-3.77C34.79-3.77 35.32-3.65 35.69-3.43C36.06-3.20 36.24-2.84 36.24-2.35C36.24-1.82 36.05-1.42 35.68-1.17C35.30-0.92 34.77-0.79 34.09-0.79ZM38.78-7.87L38.78 0L43.44 0L43.44-0.85L39.78-0.85L39.78-3.71L42.77-3.71L42.77-4.56L39.78-4.56L39.78-7.03L43.32-7.03L43.32-7.87ZM45.13-1.72L44.53-1.02C44.88-0.66 45.28-0.38 45.76-0.17C46.23 0.04 46.74 0.14 47.29 0.14C47.71 0.14 48.08 0.09 48.41-0.03C48.74-0.15 49.02-0.31 49.25-0.51C49.48-0.71 49.66-0.95 49.78-1.22C49.91-1.50 49.97-1.79 49.97-2.10C49.97-2.39 49.93-2.64 49.84-2.86C49.76-3.08 49.64-3.27 49.50-3.44C49.36-3.60 49.18-3.75 48.98-3.87C48.78-3.99 48.57-4.10 48.35-4.20L47.23-4.68C47.07-4.74 46.92-4.81 46.76-4.89C46.61-4.97 46.47-5.05 46.34-5.15C46.22-5.25 46.11-5.37 46.04-5.50C45.96-5.63 45.92-5.80 45.92-5.99C45.92-6.35 46.06-6.63 46.33-6.83C46.59-7.04 46.95-7.14 47.39-7.14C47.76-7.14 48.09-7.07 48.38-6.94C48.67-6.81 48.94-6.63 49.18-6.40L49.72-7.04C49.44-7.33 49.10-7.57 48.70-7.75C48.30-7.93 47.86-8.02 47.39-8.02C47.03-8.02 46.70-7.96 46.40-7.86C46.10-7.76 45.84-7.61 45.62-7.42C45.40-7.23 45.23-7.01 45.10-6.76C44.98-6.50 44.92-6.22 44.92-5.93C44.92-5.64 44.96-5.39 45.06-5.17C45.16-4.95 45.28-4.76 45.43-4.60C45.58-4.44 45.76-4.30 45.95-4.19C46.14-4.08 46.33-3.98 46.51-3.90L47.64-3.41C47.82-3.32 48.00-3.24 48.16-3.16C48.32-3.08 48.45-2.99 48.57-2.89C48.69-2.79 48.78-2.67 48.85-2.53C48.91-2.39 48.95-2.22 48.95-2.02C48.95-1.63 48.80-1.32 48.52-1.09C48.23-0.85 47.82-0.73 47.30-0.73C46.90-0.73 46.50-0.82 46.12-1.00C45.74-1.18 45.41-1.42 45.13-1.72ZM52.91-7.03L52.91 0L53.92 0L53.92-7.03L56.29-7.03L56.29-7.87L50.53-7.87L50.53-7.03ZM60.13-7.87L60.13 0L62.15 0C62.74 0 63.26-0.09 63.72-0.27C64.18-0.45 64.56-0.71 64.87-1.05C65.18-1.39 65.42-1.81 65.58-2.30C65.74-2.79 65.82-3.35 65.82-3.97C65.82-5.23 65.50-6.19 64.87-6.86C64.24-7.54 63.32-7.87 62.10-7.87ZM62.03-0.82L61.13-0.82L61.13-7.06L62.03-7.06C62.95-7.06 63.64-6.79 64.10-6.26C64.56-5.74 64.79-4.97 64.79-3.97C64.79-2.97 64.56-2.20 64.10-1.64C63.64-1.09 62.95-0.82 62.03-0.82ZM67.51-7.87L67.51 0L72.17 0L72.17-0.85L68.51-0.85L68.51-3.71L71.50-3.71L71.50-4.56L68.51-4.56L68.51-7.03L72.05-7.03L72.05-7.87ZM72.76-7.87L75.28 0L76.44 0L78.94-7.87L77.92-7.87L76.66-3.62C76.52-3.15 76.40-2.72 76.28-2.32C76.17-1.92 76.04-1.48 75.90-1.02L75.85-1.02C75.70-1.48 75.57-1.92 75.46-2.32C75.35-2.72 75.23-3.15 75.08-3.62L73.82-7.87ZM80.02-7.87L80.02 0L84.67 0L84.67-0.85L81.01-0.85L81.01-3.71L84-3.71L84-4.56L81.01-4.56L81.01-7.03L84.55-7.03L84.55-7.87ZM86.34-7.87L86.34 0L90.78 0L90.78-0.85L87.34-0.85L87.34-7.87ZM94.76 0.14C95.26 0.14 95.71 0.05 96.13-0.14C96.54-0.34 96.89-0.61 97.19-0.97C97.49-1.32 97.73-1.75 97.89-2.26C98.05-2.77 98.14-3.34 98.14-3.97C98.14-4.60 98.05-5.16 97.89-5.66C97.73-6.16 97.49-6.58 97.19-6.93C96.89-7.28 96.54-7.55 96.13-7.73C95.71-7.92 95.26-8.02 94.76-8.02C94.27-8.02 93.81-7.92 93.40-7.74C92.99-7.56 92.64-7.29 92.34-6.94C92.04-6.59 91.81-6.17 91.65-5.67C91.49-5.17 91.40-4.60 91.40-3.97C91.40-3.34 91.49-2.77 91.65-2.26C91.81-1.75 92.04-1.32 92.34-0.97C92.64-0.61 92.99-0.34 93.40-0.14C93.81 0.05 94.27 0.14 94.76 0.14ZM94.76-0.73C94.41-0.73 94.09-0.81 93.81-0.96C93.53-1.11 93.28-1.33 93.08-1.61C92.87-1.90 92.72-2.24 92.60-2.63C92.49-3.03 92.44-3.48 92.44-3.97C92.44-4.46 92.49-4.90 92.60-5.29C92.72-5.68 92.87-6.02 93.08-6.29C93.28-6.56 93.53-6.77 93.81-6.92C94.09-7.07 94.41-7.14 94.76-7.14C95.12-7.14 95.43-7.07 95.72-6.92C96.00-6.77 96.25-6.56 96.45-6.29C96.65-6.02 96.81-5.68 96.92-5.29C97.04-4.90 97.09-4.46 97.09-3.97C97.09-3.48 97.04-3.03 96.92-2.63C96.81-2.24 96.65-1.90 96.45-1.61C96.25-1.33 96.00-1.11 95.72-0.96C95.43-0.81 95.12-0.73 94.76-0.73ZM99.83-7.87L99.83 0L100.82 0L100.82-3.12L102.24-3.12C102.67-3.12 103.07-3.17 103.42-3.27C103.78-3.37 104.08-3.52 104.34-3.72C104.60-3.92 104.79-4.17 104.93-4.48C105.07-4.78 105.14-5.14 105.14-5.56C105.14-5.99 105.07-6.35 104.93-6.65C104.79-6.94 104.60-7.18 104.35-7.36C104.09-7.54 103.79-7.67 103.43-7.75C103.07-7.83 102.67-7.87 102.24-7.87ZM102.12-3.94L100.82-3.94L100.82-7.07L102.12-7.07C102.80-7.07 103.31-6.96 103.64-6.74C103.98-6.52 104.15-6.12 104.15-5.56C104.15-5.00 103.98-4.59 103.65-4.33C103.32-4.07 102.81-3.94 102.12-3.94ZM106.74-7.87L106.74 0L107.66 0L107.66-4.33C107.66-4.68 107.65-5.07 107.62-5.50C107.58-5.92 107.56-6.31 107.53-6.66L107.58-6.66L108.20-4.91L109.73-0.79L110.29-0.79L111.80-4.91L112.44-6.66L112.49-6.66C112.46-6.31 112.43-5.92 112.40-5.50C112.37-5.07 112.36-4.68 112.36-4.33L112.36 0L113.30 0L113.30-7.87L112.13-7.87L110.62-3.65L110.06-2.04L110.02-2.04L109.44-3.65L107.92-7.87ZM115.46-7.87L115.46 0L120.12 0L120.12-0.85L116.46-0.85L116.46-3.71L119.45-3.71L119.45-4.56L116.46-4.56L116.46-7.03L120.00-7.03L120.00-7.87ZM121.79-7.87L121.79 0L122.74 0L122.74-4.12C122.74-4.53 122.72-4.95 122.69-5.36C122.67-5.77 122.64-6.18 122.60-6.58L122.65-6.58L123.50-4.96L126.36 0L127.39 0L127.39-7.87L126.44-7.87L126.44-3.80C126.44-3.39 126.46-2.97 126.49-2.54C126.51-2.11 126.54-1.70 126.56-1.30L126.52-1.30L125.66-2.93L122.82-7.87ZM131.18-7.03L131.18 0L132.19 0L132.19-7.03L134.57-7.03L134.57-7.87L128.81-7.87L128.81-7.03Z" transform="translate(0.012, 8.016)"></path>
            </g>
        </g>
    </g>
</g>
</g>
<defs v-gra="od">
</defs>
</svg>